/* XPM */
static char * rei_mini_xpm[] = {
"27 57 622 2",
"  	c None",
". 	c #262692",
"+ 	c #4E4EBA",
"@ 	c #6363C5",
"# 	c #6464C5",
"$ 	c #5E5EC5",
"% 	c #4848B2",
"& 	c #3838A4",
"* 	c #5F5FC9",
"= 	c #8F8FED",
"- 	c #A7A7FF",
"; 	c #AAAAFF",
"> 	c #A9A9FF",
", 	c #9D9DFA",
"' 	c #9D9DFD",
") 	c #7979E1",
"! 	c #3C3CA3",
"~ 	c #2D2D9B",
"{ 	c #3636A5",
"] 	c #6B6BD3",
"^ 	c #9E9EFB",
"/ 	c #7575EE",
"( 	c #5858DA",
"_ 	c #8E8EFD",
": 	c #9999F8",
"< 	c #6262CC",
"[ 	c #3333A1",
"} 	c #5151BA",
"| 	c #9292F9",
"1 	c #6969D8",
"2 	c #4C4CCD",
"3 	c #7575F2",
"4 	c #A2A2FF",
"5 	c #A8A8FF",
"6 	c #8A8AF3",
"7 	c #4A4AB2",
"8 	c #5959C3",
"9 	c #5D5DA6",
"0 	c #6B6BA2",
"a 	c #7B7BCC",
"b 	c #A3A3FF",
"c 	c #A1A1FF",
"d 	c #A6A6FF",
"e 	c #7E7EE5",
"f 	c #4C4CB4",
"g 	c #6E6EE7",
"h 	c #6A6A9A",
"i 	c #555556",
"j 	c #737373",
"k 	c #353563",
"l 	c #8383F6",
"m 	c #A0A0FF",
"n 	c #8F8FFF",
"o 	c #9A9AFF",
"p 	c #9494FF",
"q 	c #5C5C83",
"r 	c #707078",
"s 	c #4E4E7B",
"t 	c #8484DF",
"u 	c #4F4FB7",
"v 	c #5858C6",
"w 	c #7070D3",
"x 	c #898996",
"y 	c #383854",
"z 	c #4747C3",
"A 	c #9C9CFC",
"B 	c #8C8CF9",
"C 	c #8080F2",
"D 	c #7171EF",
"E 	c #7E7EF4",
"F 	c #3D3D96",
"G 	c #C7C7CA",
"H 	c #616161",
"I 	c #4F4F61",
"J 	c #6969CA",
"K 	c #35359B",
"L 	c #6E6EE1",
"M 	c #2A2A8D",
"N 	c #5E5E80",
"O 	c #4848C3",
"P 	c #9797FE",
"Q 	c #9F9FFF",
"R 	c #A3A3FC",
"S 	c #6868E2",
"T 	c #5151CD",
"U 	c #9090F7",
"V 	c #9999FA",
"W 	c #9292F6",
"X 	c #7B7BF1",
"Y 	c #43439B",
"Z 	c #636368",
"` 	c #7A7A7A",
" .	c #6F6FC7",
"..	c #4D4DB6",
"+.	c #7E7EE2",
"@.	c #3434B6",
"#.	c #4242C4",
"$.	c #4A4ACB",
"%.	c #8484F9",
"&.	c #8C8CFE",
"*.	c #9090FA",
"=.	c #7878E5",
"-.	c #5050CA",
";.	c #4141BD",
">.	c #6666DD",
",.	c #7F7FE0",
"'.	c #9090F3",
").	c #9D9DFF",
"!.	c #9E9EFF",
"~.	c #7575E8",
"{.	c #3D3D72",
"].	c #515151",
"^.	c #5757B2",
"/.	c #8383E8",
"(.	c #5252B3",
"_.	c #2929A5",
":.	c #4444C7",
"<.	c #3A3AB7",
"[.	c #8282F8",
"}.	c #7676ED",
"|.	c #8F8FF7",
"1.	c #6666E3",
"2.	c #2A2AAA",
"3.	c #6161D3",
"4.	c #2727A4",
"5.	c #9A9AFB",
"6.	c #2626A5",
"7.	c #7575D7",
"8.	c #5454C0",
"9.	c #8686F1",
"0.	c #7474FC",
"a.	c #8B8BF9",
"b.	c #A4A4FD",
"c.	c #4444AE",
"d.	c #5B5B64",
"e.	c #A5A5FF",
"f.	c #4848B4",
"g.	c #20208C",
"h.	c #292999",
"i.	c #4848C5",
"j.	c #6B6BDF",
"k.	c #5F5FDE",
"l.	c #9B9BFB",
"m.	c #4545BF",
"n.	c #5857CB",
"o.	c #28227F",
"p.	c #5450B8",
"q.	c #2D2896",
"r.	c #7272EB",
"s.	c #311E57",
"t.	c #6868D3",
"u.	c #3636B6",
"v.	c #7979E9",
"w.	c #5555DA",
"x.	c #6E6EED",
"y.	c #8080EC",
"z.	c #7575E1",
"A.	c #2A2A7D",
"B.	c #8181EB",
"C.	c #5E5EC4",
"D.	c #4E4EBF",
"E.	c #3E3EB7",
"F.	c #8383F8",
"G.	c #3C3CBC",
"H.	c #9191FF",
"I.	c #3C3CBB",
"J.	c #392977",
"K.	c #4B3272",
"L.	c #43348D",
"M.	c #4A3065",
"N.	c #6D6DF1",
"O.	c #9B9BFF",
"P.	c #4B49C4",
"Q.	c #5A344C",
"R.	c #3232AF",
"S.	c #352053",
"T.	c #5454D7",
"U.	c #8989F8",
"V.	c #3333B0",
"W.	c #8888EC",
"X.	c #3939BB",
"Y.	c #8484F7",
"Z.	c #5F5FC3",
"`.	c #4B4BBA",
" +	c #4E4EC6",
".+	c #6363DA",
"++	c #5353D8",
"@+	c #6161D9",
"#+	c #2222A0",
"$+	c #29185E",
"%+	c #2A1977",
"&+	c #442875",
"*+	c #38205C",
"=+	c #3D3CBD",
"-+	c #6C6CE8",
";+	c #9A9AFE",
">+	c #35309D",
",+	c #693D4B",
"'+	c #150C69",
")+	c #4C2C72",
"!+	c #2C1B62",
"~+	c #11118C",
"{+	c #4444C6",
"]+	c #6666DF",
"^+	c #3F3FBF",
"/+	c #6A6AEB",
"(+	c #4646C1",
"_+	c #303099",
":+	c #5454CA",
"<+	c #2D2DAC",
"[+	c #6060E5",
"}+	c #2C2CAD",
"|+	c #050441",
"1+	c #92553D",
"2+	c #251635",
"3+	c #05050D",
"4+	c #281706",
"5+	c #322152",
"6+	c #4948CD",
"7+	c #6363EA",
"8+	c #452D71",
"9+	c #9D5B50",
"0+	c #37211E",
"a+	c #04040B",
"b+	c #140B03",
"c+	c #12105A",
"d+	c #3131B4",
"e+	c #2B2BAC",
"f+	c #6060E6",
"g+	c #3C3CA6",
"h+	c #3333A6",
"i+	c #1F1F99",
"j+	c #5151D5",
"k+	c #2E2EAF",
"l+	c #1E1323",
"m+	c #160E0B",
"n+	c #4C4C9E",
"o+	c #383876",
"p+	c #000000",
"q+	c #170D03",
"r+	c #61407D",
"s+	c #3736BA",
"t+	c #7B537F",
"u+	c #422E38",
"v+	c #5959AA",
"w+	c #282862",
"x+	c #1B0F31",
"y+	c #241D7F",
"z+	c #1D1D9B",
"A+	c #3B3BB2",
"B+	c #7C7CF4",
"C+	c #4949C0",
"D+	c #101082",
"E+	c #3737B6",
"F+	c #7171E8",
"G+	c #0A0935",
"H+	c #4D3328",
"I+	c #484876",
"J+	c #00000B",
"K+	c #1F0004",
"L+	c #60372F",
"M+	c #F4BAAA",
"N+	c #A7748F",
"O+	c #9B7295",
"P+	c #BBBBE4",
"Q+	c #323263",
"R+	c #000008",
"S+	c #280005",
"T+	c #090001",
"U+	c #472916",
"V+	c #58355A",
"W+	c #2727A6",
"X+	c #7676F0",
"Y+	c #3535A2",
"Z+	c #111180",
"`+	c #3E3EB0",
" @	c #6666D5",
".@	c #0B0A57",
"+@	c #AC7962",
"@@	c #A992A0",
"#@	c #180702",
"$@	c #57000E",
"%@	c #7F5448",
"&@	c #FFEAD9",
"*@	c #FFE2D1",
"=@	c #FAC1B2",
"-@	c #F5EAEC",
";@	c #4B3D45",
">@	c #370007",
",@	c #610013",
"'@	c #261112",
")@	c #7C4846",
"!@	c #413CAE",
"~@	c #5454DB",
"{@	c #8B8BFC",
"]@	c #5E5EC8",
"^@	c #4A4AB7",
"/@	c #5050C0",
"(@	c #2C2CA7",
"_@	c #694337",
":@	c #F8C4B3",
"<@	c #DFCEBD",
"[@	c #DACBBD",
"}@	c #EFDCCA",
"|@	c #FFE5D4",
"1@	c #FFEDDC",
"2@	c #FFEBDA",
"3@	c #EDD2BF",
"4@	c #DAAD9F",
"5@	c #DAA091",
"6@	c #653D5C",
"7@	c #3F3BAF",
"8@	c #5D5DE5",
"9@	c #5B5BDF",
"0@	c #5B5BC7",
"a@	c #34349E",
"b@	c #5555CC",
"c@	c #130B39",
"d@	c #DEAF9B",
"e@	c #FFEEDD",
"f@	c #E09892",
"g@	c #FDEADA",
"h@	c #DAB8BB",
"i@	c #51357E",
"j@	c #1E1E9B",
"k@	c #2828A8",
"l@	c #3C3CBE",
"m@	c #5B5BC6",
"n@	c #5D5DD1",
"o@	c #000072",
"p@	c #4D304B",
"q@	c #F0C0B3",
"r@	c #FFE4D3",
"s@	c #E9B9AF",
"t@	c #F3C2B3",
"u@	c #7D4B39",
"v@	c #1A186C",
"w@	c #3131B2",
"x@	c #4343A9",
"y@	c #37379E",
"z@	c #242491",
"A@	c #0A0A74",
"B@	c #3D2748",
"C@	c #B38C87",
"D@	c #EED4C3",
"E@	c #FEE9D8",
"F@	c #FEE8D7",
"G@	c #E6BAAA",
"H@	c #835442",
"I@	c #110E54",
"J@	c #4C4CB6",
"K@	c #141482",
"L@	c #131381",
"M@	c #10107F",
"N@	c #3F281F",
"O@	c #7B6050",
"P@	c #D3A08C",
"Q@	c #D09D86",
"R@	c #9A694D",
"S@	c #36231A",
"T@	c #371B1B",
"U@	c #7B382C",
"V@	c #923839",
"W@	c #8F363A",
"X@	c #2B0404",
"Y@	c #414141",
"Z@	c #979797",
"`@	c #8B8B8B",
" #	c #574242",
".#	c #5D5D5D",
"+#	c #808080",
"@#	c #D1D1D1",
"##	c #A29F9F",
"$#	c #7D7676",
"%#	c #1E0D0D",
"&#	c #5B5454",
"*#	c #A9A9A9",
"=#	c #A0A0A0",
"-#	c #CACACA",
";#	c #BEBEBE",
">#	c #746868",
",#	c #AA9797",
"'#	c #CECECE",
")#	c #D6D6D6",
"!#	c #FFFFFF",
"~#	c #FAFAFA",
"{#	c #AEAEAE",
"]#	c #C8C8C8",
"^#	c #5D2C33",
"/#	c #856D71",
"(#	c #E0E0E0",
"_#	c #9B9B9B",
":#	c #656565",
"<#	c #F0F0F0",
"[#	c #3E3E63",
"}#	c #705668",
"|#	c #EBEBEB",
"1#	c #EDEDED",
"2#	c #B3B3B3",
"3#	c #BBBBBB",
"4#	c #B0B0B0",
"5#	c #D5D5D5",
"6#	c #DCDCDC",
"7#	c #402E41",
"8#	c #4D4452",
"9#	c #ADADAE",
"0#	c #FEFEFE",
"a#	c #D4D4D4",
"b#	c #7D7D7D",
"c#	c #BFBFBF",
"d#	c #626279",
"e#	c #DFDFDF",
"f#	c #EEEEEE",
"g#	c #CBCBCB",
"h#	c #BABABA",
"i#	c #F3F3F3",
"j#	c #2E2E53",
"k#	c #030375",
"l#	c #82828B",
"m#	c #F7F7F7",
"n#	c #CCCCCC",
"o#	c #9A9A9A",
"p#	c #6E6E6E",
"q#	c #CFCFCF",
"r#	c #E8E8E8",
"s#	c #E5E5E5",
"t#	c #1B1B6F",
"u#	c #9B9B9D",
"v#	c #28282A",
"w#	c #3D3D64",
"x#	c #F4F4F4",
"y#	c #ECECEC",
"z#	c #3F3F5A",
"A#	c #3333B1",
"B#	c #343478",
"C#	c #9E9E9F",
"D#	c #8F8F8F",
"E#	c #3D3D74",
"F#	c #E7E7E7",
"G#	c #FBFBFB",
"H#	c #C0C0C0",
"I#	c #F5F5F5",
"J#	c #C9C9C9",
"K#	c #686868",
"L#	c #232390",
"M#	c #5656DC",
"N#	c #414175",
"O#	c #3B3B8F",
"P#	c #B5B5B5",
"Q#	c #7F7F7F",
"R#	c #A8A8A8",
"S#	c #828282",
"T#	c #A2A2A2",
"U#	c #D2D2D2",
"V#	c #BCBCBC",
"W#	c #989898",
"X#	c #4C4C4C",
"Y#	c #1E1E72",
"Z#	c #7373FB",
"`#	c #242469",
" $	c #171756",
".$	c #3C3C96",
"+$	c #676D67",
"@$	c #2E4E2E",
"#$	c #565656",
"$$	c #6F6F6F",
"%$	c #3C503C",
"&$	c #686B68",
"*$	c #686968",
"=$	c #727272",
"-$	c #242459",
";$	c #050525",
">$	c #26269B",
",$	c #39398F",
"'$	c #616661",
")$	c #385538",
"!$	c #C7C7C7",
"~$	c #868686",
"{$	c #A4A4A4",
"]$	c #667A66",
"^$	c #075307",
"/$	c #435F43",
"($	c #B7B7B7",
"_$	c #545454",
":$	c #0B0B6E",
"<$	c #2E2E50",
"[$	c #A6A6A6",
"}$	c #242481",
"|$	c #5F5FE1",
"1$	c #5A5A6D",
"2$	c #848484",
"3$	c #5C5C5C",
"4$	c #DBDBDB",
"5$	c #707070",
"6$	c #575757",
"7$	c #040432",
"8$	c #AFAFAF",
"9$	c #D9D9D9",
"0$	c #494949",
"a$	c #585858",
"b$	c #595965",
"c$	c #3F3FA5",
"d$	c #4848B1",
"e$	c #9D9D9D",
"f$	c #595959",
"g$	c #E9E9E9",
"h$	c #B9B9B9",
"i$	c #7C7C7C",
"j$	c #10101B",
"k$	c #959597",
"l$	c #2B2B2B",
"m$	c #8D8D8D",
"n$	c #878787",
"o$	c #60606B",
"p$	c #373744",
"q$	c #5F5F5F",
"r$	c #F8F8F8",
"s$	c #ACACAC",
"t$	c #787878",
"u$	c #C4C4C4",
"v$	c #D8D8D8",
"w$	c #4F4F59",
"x$	c #5B5B5E",
"y$	c #818181",
"z$	c #8C8C8C",
"A$	c #C5C5C5",
"B$	c #EFEFEF",
"C$	c #626262",
"D$	c #D3D3D3",
"E$	c #666666",
"F$	c #F2F2F2",
"G$	c #757575",
"H$	c #8E8E8E",
"I$	c #E4E4E4",
"J$	c #F1F1F1",
"K$	c #676767",
"L$	c #646464",
"M$	c #929292",
"N$	c #B1B1B1",
"O$	c #F6F6F8",
"P$	c #EAEAF3",
"Q$	c #A3A3E5",
"R$	c #6666DA",
"S$	c #ADADE4",
"T$	c #FAFAFD",
"U$	c #D1D1E5",
"V$	c #4B4B9A",
"W$	c #4A4A53",
"X$	c #858585",
"Y$	c #D3D3DC",
"Z$	c #9898D8",
"`$	c #8484DB",
" %	c #8A8AE1",
".%	c #8A8AD2",
"+%	c #7575DD",
"@%	c #8686D5",
"#%	c #4545A7",
"$%	c #42428A",
"%%	c #313137",
"&%	c #909090",
"*%	c #0E0E0E",
"=%	c #777777",
"-%	c #F9F9F9",
";%	c #C6C6D1",
">%	c #A0A0CD",
",%	c #7575D4",
"'%	c #8F8FD6",
")%	c #B4B4CF",
"!%	c #5F5FA5",
"~%	c #1B1B61",
"{%	c #49494C",
"]%	c #B2B2B2",
"^%	c #4B4B4B",
"/%	c #444444",
"(%	c #C1C1C1",
"_%	c #DADADA",
":%	c #949494",
"<%	c #9C9C9C",
"[%	c #B8B8B8",
"}%	c #8F8FA4",
"|%	c #70708E",
"1%	c #5F5F73",
"2%	c #2E2E2E",
"3%	c #404040",
"4%	c #4F4F4F",
"5%	c #2A2A2A",
"6%	c #3F3F3F",
"7%	c #D7D7D7",
"8%	c #E6E6E6",
"9%	c #373737",
"0%	c #232323",
"a%	c #252525",
"b%	c #292929",
"c%	c #969696",
"d%	c #EAEAEA",
"e%	c #A3A3A3",
"f%	c #FCFCFC",
"g%	c #C3C3C3",
"h%	c #1E1E1E",
"i%	c #DEDEDE",
"j%	c #6B6B6B",
"k%	c #191919",
"l%	c #C6C6C6",
"m%	c #4A4A4A",
"n%	c #7B7B7B",
"o%	c #6C6C6C",
"p%	c #E3E3E3",
"q%	c #484848",
"r%	c #AAAAAA",
"s%	c #505050",
"t%	c #717171",
"u%	c #313131",
"v%	c #6A6A6A",
"w%	c #151515",
"x%	c #BDBDBD",
"y%	c #101010",
"z%	c #606060",
"A%	c #030303",
"B%	c #838383",
"C%	c #1F1F1F",
"D%	c #242424",
"E%	c #0D0D0D",
"                      . + @ # # $ %                   ",
"                & * = - ; ; ; > , ' ) ! ~             ",
"            { ] ^ ; ; ; ; ; ; - / ( _ > : < [         ",
"          } | ; ; ; ; ; ; ; ; ; - 1 2 3 4 5 6 7       ",
"        8 9 0 a b ; ; ; ; ; ; ; ; ; b c d ; 5 e       ",
"    f g h i j k l ; m n o ; ; ; ; ; c p q r s t u     ",
"    v w x y z A ; B C D - ; ; ; > ; ; E F G H I J     ",
"  K L M N O P Q R S T U ; ; ; V W ; ; ; X Y Z `  ...  ",
"  +.@.#.$.%.&.*.=.-.;.c ; ; > >.,.'.).!.> ~.{.].^./.  ",
"(._.:.<.[.}.|.1.2.3.4.p d ; 5.6.7.8.9.0.a.b.c.d.^.e.f.",
"g.h.i.j.k.l.m.n.o.p.q.n e.> r.s.t.u.v.w.x.y.z.A.B.b C.",
"  D.E.F.G.H.I.J.K.L.M.N.O.5 P.Q.R.S.T.2.U.V.W.X.Q Y.Z.",
"  `. +.+++@+#+$+%+&+*+=+-+;+>+,+'+)+!+~+{+:.]+^+Q /+(+",
"  _+:+<+[+}+|+1+2+3+4+5+6+7+8+9+0+a+b+c+~+d+e+u.n f+g+",
"    h+i+j+k+l+m+n+o+p+q+r+s+t+u+v+w+p+p+x+y+z+A+B+C+  ",
"      D+E+F+G+H+I+J+K+L+M+N+O+P+Q+R+S+T+U+V+W+F.X+Y+  ",
"      Z+`+ @.@+@@@#@$@%@&@*@=@-@;@>@,@'@)@!@~@{@]@    ",
"        ^@/@(@_@:@<@[@}@|@1@2@1@3@4@5@6@7@8@9@0@      ",
"          a@b@c@d@e@e@e@f@g@e@e@e@h@i@j@k@l@m@        ",
"            n@o@p@q@1@e@r@s@r@e@1@t@u@v@w@x@          ",
"            y@z@A@B@C@D@E@e@e@F@G@H@I@J@K@            ",
"              L@  M@  N@O@P@Q@R@S@                    ",
"                        T@U@V@W@X@                    ",
"              Y@Z@`@ #.#+#@#@###$#%#&#*#=#            ",
"              -#;#>#,#'#)#!#~#{#]#^#/#;#(#_#          ",
"            :#<#[#}#|#1#2#3#4#5#6#7#8#9#0#a#          ",
"            b#c#d#e#!#f#g#h#!#!#i#j#k#l#m#n#          ",
"            o#p#q#!#!#r#s#'#!#!#i#j#t#u#c#Z@          ",
"            v#w#~#!#!#x#0#!#!#!#y#z#A#B#C#D#          ",
"              E#F#G#(#c#H#I#!#<#J#K#L#M#N#            ",
"              O#o#P#Q#R#S#T#U#V#W#X#Y#Z#`#            ",
"             $.$+$@$o##$$$%$&$*$=$H -$#.;$            ",
"            >$,$'$)$!$~${$]$^$/$($_$:$<$[$            ",
"          }$|$1$2$3$(#g#4$i#T#~$5$6$7$8$9$            ",
"    0$a$b$c$d$e$f${$g$($9$i#~#h$` i$j$k$_#            ",
"  l$D#m$n$o$p$q$` =#r$s$9$i#'#t$u$v$w$x$y$            ",
"    z$A$2#].{$r#B$z$r#P#H#e$C$2$H#<#*#:#y$            ",
"  l$D$E$P#` f#F$D$G$G$H${#I$J$F$G#!#h#K$y$            ",
"  a$`@:#L$c#|#M$p#N$O$P$Q$R$S$P$T$U$V$W$C$            ",
"  t$p#R#-#y#X$=#D$4$Y$Z$`$ %.%+%@%#%$%%%&%*%          ",
"  =%[$q#-%($z$r$u$e#c#*#;%>%,%'%)%!%~%{%]%z$^%/%      ",
"  t$c#(%_%:%<%A$(#q#<%:#Z@($[%}%|%1%2%3%X$=$4%=%5%    ",
"  6%]%5#7%:%{${#(%8%[%9%0%a%a%a%b%                    ",
"    c%3#d%e%`@1#A$x#[%:#                              ",
"    3%D$u$N$` f%g%n#s$V#h%                            ",
"      y$i%(%j%I$f%@#V#2#k%                            ",
"        l%m#Z@[$!#!#<#2#k%                            ",
"        m%J$P#n%~#!#<#2#k%                            ",
"          ` g#o%p%!#<#2#k%                            ",
"            R#o#[$!#<#2#k%                            ",
"            q%r%n%m#m#u$s%                            ",
"              6$t%e#!#5#u%                            ",
"                v%R#!#5#w%p+                          ",
"                q%b#y#x%y%                            ",
"                  0%h#z%A%                            ",
"                    B%C%p+                            ",
"                    D%E%                              "};
