/* XPM */
static char * rei2_xpm[] = {
"58 123 44 1",
" 	c None",
".	c #131381",
"+	c #8686DE",
"@	c #7777FF",
"#	c #AAAAFF",
"$	c #4444CC",
"%	c #000077",
"&	c #000000",
"*	c #CCCCCC",
"=	c #888888",
"-	c #FFFFFF",
";	c #C2C2FF",
">	c #E7E7FF",
",	c #774411",
"'	c #CC7777",
")	c #56310C",
"!	c #794646",
"~	c #382020",
"{	c #000076",
"]	c #AB634F",
"^	c #C47272",
"/	c #CB7676",
"(	c #A56060",
"_	c #784646",
":	c #C1706A",
"<	c #985839",
"[	c #C67373",
"}	c #B46969",
"|	c #58320C",
"1	c #FFBBAA",
"2	c #CB7675",
"3	c #0B0601",
"4	c #764310",
"5	c #010100",
"6	c #770000",
"7	c #CC0033",
"8	c #FFEEDD",
"9	c #8D6338",
"0	c #811313",
"a	c #C7C7C7",
"b	c #444444",
"c	c #757575",
"d	c #F5F5F5",
"e	c #005500",
"                          ............                    ",
"                      ....+@########@+..                  ",
"                   ...+@##############@+.                 ",
"                 ..+@##################@+....             ",
"               ..+@###############@$$@#####@+..           ",
"             ..+@##################@$$@@#####@+..         ",
"            .+@#####################@%$@@######@+.        ",
"           .+@#######################@%%$$@#####@+.       ",
"          .+@##########################@@@@@#####@+.      ",
"        ..+@######################################@.      ",
"      ..+@#&&&&&$@#################################+.     ",
"     .+@@#&*&&*=&$@######@@#############@##@&&&&@##@.     ",
"    .+@$#&*=&*=&$@####@#@@###############@@&*-*=&&@#+.    ",
"    .@$#@&-&=%$@#####@#@$@###############@$%=*-*&&&@@.    ",
"   .;%#@&**&%$@#####@$#$@#################@$%=*-&*=&#+.   ",
"   .%#@$&*=%$@######$@@$@#########@########@$%=*&=*&#@.   ",
"   .#@$%&=%$@##@###@$#%$##########$#########@$%==&-&@#+.  ",
"  .>@$%$@%$@#@@####%$#%@#########@$##########@$%=&*&$#@.  ",
" .;@$%$@%$@#@@##@#@%@@%@#########$%##@##@#####@%=&=&$##+. ",
" .@$%$@%$@#@$##@$@$%#$%@########@$%##%##@@@####$%==&$##@. ",
".;$%%@$%@#@$##@$#$%$#%%@#@######$%%##%##$@@@###@%==&$###+.",
".+..$@%$#@$@##$$@%%@@%%@#@#####@$%%#@%@#$@@$@###$%=&$###@.",
".. .@$%@#@$##@%#$%%#$%%@#@#####@%,%#@%@#$$@@$@##@%&$@####.",
".  .#%$#@%@##$%@%,%#%,%@#@####@$%,%#$%$#$%@#@%@##%$@###@#.",
"  .+@%@#@%@#@%@$%,%@%,%$@@####@$%,%@%,%@@%$@#%$##%$@###@#.",
"  .@$%#@$%@#@%@%,'%$%',%@@@###@%,'%$%,%$$$%@#$%@#$%@##@$#.",
"  .#%$#@%$@#$%$%,%%%%%%%$@$###@%,'%%%%%%%$%$@@%$#@%@##@$@.",
"  .@%@#@%@@@%%$%%'%%'',%%@$@#@$%,%,%%'',%%%%$@$%@@%@##@$@.",
"  .+%@@$%@@$%&%,''%)!~,,%$@$@@$%''',{''',%$%%$$%$@%@#@$@+.",
"   ..+@%%@@%$&%']^,'/^(_,%$$$@%,':/','''',%$%%$$%$%@#@$@. ",
"   . .@%%@@%$&%<[''''''/},%$$$%''''''''''',%%%$$%%%@#@$+. ",
"   . .@%%@$%$&,|&&&&&&&&,}'%$$%12,&&&&&&&&&,,%%$%$%#@$$.  ",
"     .+%%@%$@&3&&%#%&&&&&/1'%%%1,&%#%&&&&&&&4,,%%@$#@$+.  ",
"      .%%@%@#%&5&#&&&&&6&&111'%1&##&&&&&6&&&&'%$%@@#@$.   ",
"      ..%@%@#%&',-&&&&&7&,8811'1#-#&&&&&7&&,',%$%@##@+.   ",
"       ..+%$#%&,1-#&&676&18888118-#&&6776&&',%$@$@#@+.    ",
"       . .@%#%%&11',&&&&,8888881881,&&&&&&',%$@@$@@+.     ",
"         .@%#$%&'118888888888888888811111',%$@@$$@+.      ",
"         .;%@@%&,188888888818888888888111%%$@$$$@+.       ",
"          ..+#%%&'888888881'88888888881'%$$$%$$@+.        ",
"          . .@$%&,18888888''8888888881%%%%%%$$%+.         ",
"            .+@%%&'18888888888888888881',&%$$%+.          ",
"             .@%%%&'18888881''18888881',&%$$%+.           ",
"             .+%%%%&'1888888888888881',&%$+...            ",
"              .+...%&&'1888888888881'9&..+. .             ",
"               .. ..%.&&9'18888881'9&&  ..                ",
"                .  ...  &&&9'11',,&&    .                 ",
"                     .     &,,,,,'&                       ",
"                          &06667760&                      ",
"                  &&&&&&  &=======6&    &&&&              ",
"                &&a**=bc&&c=*****=ba&&&&a**ac             ",
"               &a*-*=b6=**=*----**=*=&6b****ac            ",
"              &a*=**b6=*-=*-----*=***&6b**=**ac           ",
"              &*-**=b=*--=*-----*=***&7b***--*c           ",
"             &a--=bb6=---*=*-*===*-**&6b=*----ac          ",
"             &*--b%%=*---**===***--**&%bbb*---*c          ",
"             &=-*b%=*---------------*&%%%b*---*c          ",
"            &a=-=b=*-----*b-*b------*&%%%b*---ac          ",
"            &=**b=*------b=-b=------*&%%b=--==c           ",
"            &=*=b=------------------*&%%b=*-=*c           ",
"            &abbb*------------------*&%$%b=*=dc           ",
"             &&%b-------------------*&%$$%b=*c            ",
"              &%b-------**---------**=&$$$%bac            ",
"              &%b*-----*****------***=&$%@$%c             ",
"              &$b**--**==*==*----***==&%$@@$&             ",
"              &$b=****=b=*=b=******===&%$@@$&             ",
"              &$%b====b=***b==***====&b&$@@$&             ",
"             &.$%=bbbb=*bbb=bb=====bbbb&$@$%&             ",
"             &$$b*beeb**b&b*bebbbbb=*=b&$$%&&&            ",
"            &.@$b-beeb*-b=b*beeeeb***=&%$%&==&            ",
"            &%%$%bbbb=*-=b=-*beeeb**=b&%%&=**&            ",
"           &.$@%bb=&=*--*=*--*bbbbbbb=&%&=*-*&            ",
"          &.$@$b=*==&=*--=*---***=====&%&**-*&            ",
"         &.$@#$b**=&=*---=*-----***=bb=&&**-a&            ",
"     &&&&cb%@@%b-*&=*-***=------**=b==b&&=*-&             ",
"    &d---*=b%%b=*&&b*---===***--*=b=**=&%&*-&             ",
"   &d=bbb=*=bb=&&==b*--*=*-----*=b=*-**=&&*-&             ",
"   &=b=*=bb=b&&=***=b---=***--*=b=*---*=&&*-&             ",
"   &c=****=b&=**---*b*--=*-***=b=**=*-**=&*-&             ",
"    &*-*=-*b=*-----*=b--=**bbbbbbb=*---*=&*-&             ",
"   &d-*bb-*b=*----**=b*bbbb=*----------*=&*-&             ",
"   &=-=bb*=b*---***=bbb=*--------------*=&*-&             ",
"  &cb-b=b=b=*--**=bb=*---*#$$#*-------**%&*-&             ",
"  &*b*b=bb=*--*=bb==------*#$$$#*----*#%%&==&             ",
"  &d=bb===*--*=b=*-=--*#$$#**#$$$$#*#%%%=&bbc&            ",
"   cb==***--*=b=*-*=--***#$$$#**#$$$%%#=%&=*-&            ",
"  &a==*----**b=*--=*-******#$$$#*----*#%%&bbbc&&          ",
"  &**==*---*=b*---=*-***=*****$$$$***%%%&b=*--*a&&&       ",
"  &****=*-**b=----*=-**&==*******$$%%%==&b=*-=bb=*-&      ",
"  &*****=-**b===*--=-**&====*****=====a&&cb=***=b==d&     ",
"  &a==--=-**b=*=*-*=-**=&===========a&&  &&&&&&&&&&&&     ",
"   &*=--=-**b=*=*-=*-**=&&&&&&&&&&&&&                     ",
"   &a=-*=-**b=*=*=*--**==&                                ",
"    &*-=*-**b==--=---**==&                                ",
"    &a-=*--*=b*--=*--**=*&                                ",
"     &**=*-*=b*--*=*-*=**a&                               ",
"     &a--=**=b=---*=**=**=&                               ",
"      &d-*====b*---*===**=&                               ",
"       &*---*=b*-----****=&                               ",
"       &a---*=b=-------**=&                               ",
"        &d---*=b*------**=&                               ",
"         &*--*=b*------**=&                               ",
"         &a--*=b=------**=&                               ",
"          &d-**=b*-----**=&                               ",
"           &***=b*-----**=&                               ",
"           &a**=b=-----**=&                               ",
"            &d**=b*----**=&                               ",
"             &**=b*----**=&                               ",
"             &a*=b=----**=&                               ",
"              &d==b*----**a&                              ",
"               &==b*----**=&                              ",
"               &a=b=----**&&                              ",
"                &a=b*---**&&&                             ",
"                 &=b*---**&&&                             ",
"                 &ab=---**&&&                             ",
"                  &ab*-**=&&                              ",
"                   &b*-**=&&                              ",
"                   &&=**=&&&                              ",
"                    &&**&&&&                              ",
"                     &=*&&&&                              ",
"                     &a=&&&                               ",
"                      &=&&&                               ",
"                      &&&&                                "};
