/* XPM */
static char * rei1_xpm[] = {
"58 123 26 1",
" 	c None",
".	c #131381",
"+	c #8686DE",
"@	c #7777FF",
"#	c #AAAAFF",
"$	c #4444CC",
"%	c #000077",
"&	c #000000",
"*	c #CCCCCC",
"=	c #888888",
"-	c #FFFFFF",
";	c #C2C2FF",
">	c #E7E7FF",
",	c #774411",
"'	c #CC7777",
")	c #FFBBAA",
"!	c #770000",
"~	c #CC0033",
"{	c #FFEEDD",
"]	c #8D6338",
"^	c #811313",
"/	c #C7C7C7",
"(	c #444444",
"_	c #757575",
":	c #F5F5F5",
"<	c #005500",
"                          ............                    ",
"                      ....+@########@+..                  ",
"                   ...+@##############@+.                 ",
"                 ..+@##################@+....             ",
"               ..+@###############@$$@#####@+..           ",
"             ..+@##################@$$@@#####@+..         ",
"            .+@#####################@%$@@######@+.        ",
"           .+@#######################@%%$$@#####@+.       ",
"          .+@##########################@@@@@#####@+.      ",
"        ..+@######################################@.      ",
"      ..+@#&&&&&$@#################################+.     ",
"     .+@@#&*&&*=&$@######@@#############@##@&&&&@##@.     ",
"    .+@$#&*=&*=&$@####@#@@###############@@&*-*=&&@#+.    ",
"    .@$#@&-&=%$@#####@#@$@###############@$%=*-*&&&@@.    ",
"   .;%#@&**&%$@#####@$#$@#################@$%=*-&*=&#+.   ",
"   .%#@$&*=%$@######$@@$@#########@########@$%=*&=*&#@.   ",
"   .#@$%&=%$@##@###@$#%$##########$#########@$%==&-&@#+.  ",
"  .>@$%$@%$@#@@####%$#%@#########@$##########@$%=&*&$#@.  ",
" .;@$%$@%$@#@@##@#@%@@%@#########$%##@##@#####@%=&=&$##+. ",
" .@$%$@%$@#@$##@$@$%#$%@########@$%##%##@@@####$%==&$##@. ",
".;$%%@$%@#@$##@$#$%$#%%@#@######$%%##%##$@@@###@%==&$###+.",
".+..$@%$#@$@##$$@%%@@%%@#@#####@$%%#@%@#$@@$@###$%=&$###@.",
".. .@$%@#@$##@%#$%%#$%%@#@#####@%,%#@%@#$$@@$@##@%&$@####.",
".  .#%$#@%@##$%@%,%#%,%@#@####@$%,%#$%$#$%@#@%@##%$@###@#.",
"  .+@%@#@%@#@%@$%,%@%,%$@@####@$%,%@%,%@@%$@#%$##%$@###@#.",
"  .@$%#@$%@#@%@%,'%$%',%@@@###@%,'%$%,%$$$%@#$%@#$%@##@$#.",
"  .#%$#@%$@#$%$%,%%%%%%%$@$###@%,'%%%%%%%$%$@@%$#@%@##@$@.",
"  .@%@#@%@@@%%$%%'%%'',%%@$@#@$%,%,%%'',%%%%$@$%@@%@##@$@.",
"  .+%@@$%@@$%&%,''%&&&,,%$@$@@$%''',&&&&,%$%%$$%$@%@#@$@+.",
"   ..+@%%@@%$&%',&&&&&&&,%$$$@%,',&&&&&&&&%$%%$$%$%@#@$@. ",
"   . .@%%@@%$&%,&&%#%&&&&,%$$$%''&&%#%&&&&&%%%$$%%%@#@$+. ",
"   . .@%%@$%$&,&&%#-%&&&&&'%$$%),&%#-%&&&&&&,%%$%$%#@$$.  ",
"     .+%%@%$@&&&&#%%&&&&&,)'%%%)&##%%&&&&&&&&,,%%@$#@$+.  ",
"      .%%@%@#%&,&#&&&&&!&))))'%)#-#&&&&&!&&&,'%$%@@#@$.   ",
"      ..%@%@#%&',-&&&&&~&){{))')--#&&&&&~&&,',%$%@##@+.   ",
"       ..+%$#%&,)-#&&!~!&){{{{)){-#&&!~~!&&',%$@$@#@+.    ",
"       . .@%#%%&))',&&&&,{{{{{{){{),&&&&&&',%$@@$@@+.     ",
"         .@%#$%&')){{{{{{{{{{{{{{{{{)))))',%$@@$$@+.      ",
"         .;%@@%&,){{{{{{{{{){{{{{{{{{{)))%%$@$$$@+.       ",
"          ..+#%%&'{{{{{{{{)'{{{{{{{{{{)'%$$$%$$@+.        ",
"          . .@$%&,){{{{{{{''{{{{{{{{{)%%%%%%$$%+.         ",
"            .+@%%&'){{{{{{{{{{{{{{{{{{)',&%$$%+.          ",
"             .@%%%&'){{{{{{)''){{{{{{)',&%$$%+.           ",
"             .+%%%%&'){{{{{{{{{{{{{{)',&%$+...            ",
"              .+...%&&'){{{{{{{{{{{)']&..+. .             ",
"               .. ..%.&&]'){{{{{{)']&&  ..                ",
"                .  ...  &&&]'))',,&&    .                 ",
"                     .     &,,,,,'&                       ",
"                          &^!!!~~!^&                      ",
"                  &&&&&&  &=======!&    &&&&              ",
"                &&/**=(_&&_=*****=(/&&&&/**/_             ",
"               &/*-*=(!=**=*----**=*=&!(****/_            ",
"              &/*=**(!=*-=*-----*=***&!(**=**/_           ",
"              &*-**=(=*--=*-----*=***&~(***--*_           ",
"             &/--=((!=---*=*-*===*-**&!(=*----/_          ",
"             &*--(%%=*---**===***--**&%(((*---*_          ",
"             &=-*(%=*---------------*&%%%(*---*_          ",
"            &/=-=(=*-----*(-*(------*&%%%(*---/_          ",
"            &=**(=*------(=-(=------*&%%(=--==_           ",
"            &=*=(=------------------*&%%(=*-=*_           ",
"            &/(((*------------------*&%$%(=*=:_           ",
"             &&%(-------------------*&%$$%(=*_            ",
"              &%(-------**---------**=&$$$%(/_            ",
"              &%(*-----*****------***=&$%@$%_             ",
"              &$(**--**==*==*----***==&%$@@$&             ",
"              &$(=****=(=*=(=******===&%$@@$&             ",
"              &$%(====(=***(==***====&(&$@@$&             ",
"             &.$%=((((=*(((=((=====((((&$@$%&             ",
"             &$$(*(<<(**(&(*(<(((((=*=(&$$%&&&            ",
"            &.@$(-(<<(*-(=(*(<<<<(***=&%$%&==&            ",
"            &%%$%((((=*-=(=-*(<<<(**=(&%%&=**&            ",
"           &.$@%((=&=*--*=*--*(((((((=&%&=*-*&            ",
"          &.$@$(=*==&=*--=*---***=====&%&**-*&            ",
"         &.$@#$(**=&=*---=*-----***=((=&&**-/&            ",
"     &&&&_(%@@%(-*&=*-***=------**=(==(&&=*-&             ",
"    &:---*=(%%(=*&&(*---===***--*=(=**=&%&*-&             ",
"   &:=(((=*=((=&&==(*--*=*-----*=(=*-**=&&*-&             ",
"   &=(=*=((=(&&=***=(---=***--*=(=*---*=&&*-&             ",
"   &_=****=(&=**---*(*--=*-***=(=**=*-**=&*-&             ",
"    &*-*=-*(=*-----*=(--=**(((((((=*---*=&*-&             ",
"   &:-*((-*(=*----**=(*((((=*----------*=&*-&             ",
"   &=-=((*=(*---***=(((=*--------------*=&*-&             ",
"  &_(-(=(=(=*--**=((=*---*#$$#*-------**%&*-&             ",
"  &*(*(=((=*--*=((==------*#$$$#*----*#%%&==&             ",
"  &:=((===*--*=(=*-=--*#$$#**#$$$$#*#%%%=&((_&            ",
"   _(==***--*=(=*-*=--***#$$$#**#$$$%%#=%&=*-&            ",
"  &/==*----**(=*--=*-******#$$$#*----*#%%&(((_&&          ",
"  &**==*---*=(*---=*-***=*****$$$$***%%%&(=*--*/&&&       ",
"  &****=*-**(=----*=-**&==*******$$%%%==&(=*-=((=*-&      ",
"  &*****=-**(===*--=-**&====*****=====/&&_(=***=(==:&     ",
"  &/==--=-**(=*=*-*=-**=&===========/&&  &&&&&&&&&&&&     ",
"   &*=--=-**(=*=*-=*-**=&&&&&&&&&&&&&                     ",
"   &/=-*=-**(=*=*=*--**==&                                ",
"    &*-=*-**(==--=---**==&                                ",
"    &/-=*--*=(*--=*--**=*&                                ",
"     &**=*-*=(*--*=*-*=**/&                               ",
"     &/--=**=(=---*=**=**=&                               ",
"      &:-*====(*---*===**=&                               ",
"       &*---*=(*-----****=&                               ",
"       &/---*=(=-------**=&                               ",
"        &:---*=(*------**=&                               ",
"         &*--*=(*------**=&                               ",
"         &/--*=(=------**=&                               ",
"          &:-**=(*-----**=&                               ",
"           &***=(*-----**=&                               ",
"           &/**=(=-----**=&                               ",
"            &:**=(*----**=&                               ",
"             &**=(*----**=&                               ",
"             &/*=(=----**=&                               ",
"              &:==(*----**/&                              ",
"               &==(*----**=&                              ",
"               &/=(=----**&&                              ",
"                &/=(*---**&&&                             ",
"                 &=(*---**&&&                             ",
"                 &/(=---**&&&                             ",
"                  &/(*-**=&&                              ",
"                   &(*-**=&&                              ",
"                   &&=**=&&&                              ",
"                    &&**&&&&                              ",
"                     &=*&&&&                              ",
"                     &/=&&&                               ",
"                      &=&&&                               ",
"                      &&&&                                "};
