/* XPM */
static char * misa3mini_xpm[] = {
"25 40 430 2",
"  	c None",
". 	c #140114",
"+ 	c #3A043A",
"@ 	c #4D054D",
"# 	c #4C104D",
"$ 	c #280F30",
"% 	c #430A46",
"& 	c #440544",
"* 	c #1D021D",
"= 	c #270227",
"- 	c #600660",
"; 	c #720772",
"> 	c #7F247F",
", 	c #7D207D",
"' 	c #812781",
") 	c #771177",
"! 	c #520552",
"~ 	c #730773",
"{ 	c #730873",
"] 	c #690769",
"^ 	c #630663",
"/ 	c #700770",
"( 	c #5D065D",
"_ 	c #412141",
": 	c #592259",
"< 	c #6B086B",
"[ 	c #6F076F",
"} 	c #720872",
"| 	c #740B74",
"1 	c #4F054F",
"2 	c #751175",
"3 	c #1E021E",
"4 	c #1E031E",
"5 	c #431643",
"6 	c #7D3E7D",
"7 	c #6E106E",
"8 	c #750D75",
"9 	c #710771",
"0 	c #610661",
"a 	c #611061",
"b 	c #590A53",
"c 	c #490D3F",
"d 	c #580D52",
"e 	c #350B2C",
"f 	c #5E125E",
"g 	c #5C0A5C",
"h 	c #580A58",
"i 	c #732C73",
"j 	c #792879",
"k 	c #521A55",
"l 	c #450445",
"m 	c #561456",
"n 	c #5A1F5A",
"o 	c #813481",
"p 	c #601060",
"q 	c #5A125A",
"r 	c #3D073B",
"s 	c #782A76",
"t 	c #8A4855",
"u 	c #E9A293",
"v 	c #E0A496",
"w 	c #B97A71",
"x 	c #572857",
"y 	c #5C2C42",
"z 	c #451C45",
"A 	c #4A224B",
"B 	c #722676",
"C 	c #34123C",
"D 	c #570657",
"E 	c #5F245F",
"F 	c #662266",
"G 	c #692B69",
"H 	c #351C31",
"I 	c #662A56",
"J 	c #8C3E5F",
"K 	c #662A4D",
"L 	c #ECC1B7",
"M 	c #FEDBCB",
"N 	c #8D555E",
"O 	c #B66A73",
"P 	c #B36468",
"Q 	c #764447",
"R 	c #241A2C",
"S 	c #211931",
"T 	c #4F1358",
"U 	c #190119",
"V 	c #4B054B",
"W 	c #4E0A4E",
"X 	c #3B0B40",
"Y 	c #7C3A4E",
"Z 	c #3F2233",
"` 	c #C4786F",
" .	c #A86A5F",
"..	c #ECB0A8",
"+.	c #FEDACA",
"@.	c #F1A293",
"#.	c #846164",
"$.	c #4D3A40",
"%.	c #573633",
"&.	c #92574D",
"*.	c #28253A",
"=.	c #411A50",
"-.	c #280429",
";.	c #420D48",
">.	c #171725",
",.	c #C07E73",
"'.	c #9A615C",
").	c #B8ACB6",
"!.	c #4B4050",
"~.	c #957B76",
"{.	c #FEDDCD",
"].	c #F1CEC5",
"^.	c #D9CDD0",
"/.	c #584764",
"(.	c #898591",
"_.	c #8D5850",
":.	c #724742",
"<.	c #825053",
"[.	c #640D69",
"}.	c #130E1C",
"|.	c #1B1B2C",
"1.	c #784B48",
"2.	c #8B5F5B",
"3.	c #F1E9EF",
"4.	c #4B2242",
"5.	c #A08289",
"6.	c #FEDED0",
"7.	c #F4E1E5",
"8.	c #72414F",
"9.	c #C1B0B8",
"0.	c #F9AD9F",
"a.	c #DD8576",
"b.	c #86564E",
"c.	c #5C1062",
"d.	c #23102C",
"e.	c #9E5047",
"f.	c #F2A294",
"g.	c #FCDCD1",
"h.	c #E6B6A9",
"i.	c #F4B3A6",
"j.	c #FDD7C7",
"k.	c #FED8C8",
"l.	c #FEC8B8",
"m.	c #FEB5A5",
"n.	c #FAAC9C",
"o.	c #A65F53",
"p.	c #231C27",
"q.	c #3C053D",
"r.	c #5A2F42",
"s.	c #C76E65",
"t.	c #FEDCCC",
"u.	c #FDC9B9",
"v.	c #FDD6C6",
"w.	c #FEB6A6",
"x.	c #B97069",
"y.	c #1C1A29",
"z.	c #42124C",
"A.	c #2B172B",
"B.	c #572257",
"C.	c #610B62",
"D.	c #4E1E31",
"E.	c #EBA295",
"F.	c #FED3C3",
"G.	c #FED9C9",
"H.	c #FED5C5",
"I.	c #BB726B",
"J.	c #26202F",
"K.	c #501B5B",
"L.	c #5C2A5D",
"M.	c #531353",
"N.	c #321B32",
"O.	c #5A225A",
"P.	c #6B1B6B",
"Q.	c #381543",
"R.	c #31232E",
"S.	c #8D5E56",
"T.	c #EFBAAB",
"U.	c #D1978A",
"V.	c #87362F",
"W.	c #43141C",
"X.	c #22121D",
"Y.	c #7E2D80",
"Z.	c #633763",
"`.	c #561956",
" +	c #4B244B",
".+	c #460B46",
"++	c #5A285A",
"@+	c #4B0918",
"#+	c #A94E48",
"$+	c #AB554F",
"%+	c #6B3941",
"&+	c #89513E",
"*+	c #D27D70",
"=+	c #560F28",
"-+	c #C32837",
";+	c #A31A1B",
">+	c #301421",
",+	c #5D0A5E",
"'+	c #521152",
")+	c #4E054E",
"!+	c #500F50",
"~+	c #3A0E23",
"{+	c #60273E",
"]+	c #7E230A",
"^+	c #D6C6C3",
"/+	c #BEBEBE",
"(+	c #785986",
"_+	c #DEA4A0",
":+	c #9B819B",
"<+	c #451024",
"[+	c #CB2036",
"}+	c #772703",
"|+	c #632B00",
"1+	c #771012",
"2+	c #430441",
"3+	c #410441",
"4+	c #370203",
"5+	c #330D0E",
"6+	c #771F01",
"7+	c #7B3F3C",
"8+	c #2D2D3E",
"9+	c #201F33",
"0+	c #634B7B",
"a+	c #1D1C2F",
"b+	c #2B0F19",
"c+	c #AA4C18",
"d+	c #802508",
"e+	c #D70C38",
"f+	c #E11D28",
"g+	c #2D0226",
"h+	c #250225",
"i+	c #C00030",
"j+	c #C70018",
"k+	c #A40F1C",
"l+	c #86001D",
"m+	c #2E192A",
"n+	c #3F2C45",
"o+	c #2B1D2F",
"p+	c #232338",
"q+	c #4B3D3A",
"r+	c #5E1708",
"s+	c #C6000E",
"t+	c #DC0129",
"u+	c #F7732C",
"v+	c #2F0727",
"w+	c #4F001B",
"x+	c #E80043",
"y+	c #C3000A",
"z+	c #650003",
"A+	c #7F080B",
"B+	c #5F4547",
"C+	c #57363B",
"D+	c #1E1926",
"E+	c #3C2E34",
"F+	c #8B6A62",
"G+	c #91060B",
"H+	c #C30006",
"I+	c #DE002C",
"J+	c #E90F47",
"K+	c #590428",
"L+	c #560000",
"M+	c #660000",
"N+	c #580001",
"O+	c #540102",
"P+	c #98685E",
"Q+	c #E69F8F",
"R+	c #F2B8A8",
"S+	c #F9C2B2",
"T+	c #B3796D",
"U+	c #965D55",
"V+	c #88050A",
"W+	c #7B0002",
"X+	c #840004",
"Y+	c #DD0034",
"Z+	c #8D0023",
"`+	c #3E043E",
" @	c #A30000",
".@	c #561310",
"+@	c #9E786E",
"@@	c #C27D6F",
"#@	c #EBA595",
"$@	c #FECFBF",
"%@	c #E7AFA0",
"&@	c #CB897B",
"*@	c #F9CABA",
"=@	c #F9C4B4",
"-@	c #7C4841",
";@	c #460101",
">@	c #7D0000",
",@	c #7C0002",
"'@	c #90000D",
")@	c #180118",
"!@	c #600000",
"~@	c #974E47",
"{@	c #EBA191",
"]@	c #FACFBF",
"^@	c #FED1C1",
"/@	c #FECEBE",
"(@	c #FED4C4",
"_@	c #B8867A",
":@	c #F2B0A1",
"<@	c #965A50",
"[@	c #960000",
"}@	c #590003",
"|@	c #1C0000",
"1@	c #AD5249",
"2@	c #FFDDCD",
"3@	c #FEBAAA",
"4@	c #FBA898",
"5@	c #FBBCAC",
"6@	c #F1AC9D",
"7@	c #F8AA9A",
"8@	c #3C0807",
"9@	c #A10000",
"0@	c #060000",
"a@	c #6F453D",
"b@	c #FFCFBF",
"c@	c #FBA696",
"d@	c #AE665B",
"e@	c #EF9383",
"f@	c #FEC2B2",
"g@	c #FED0C0",
"h@	c #AD7B70",
"i@	c #7D4038",
"j@	c #4C0101",
"k@	c #5A0000",
"l@	c #70463E",
"m@	c #FFBAAA",
"n@	c #FDA797",
"o@	c #E28676",
"p@	c #E89585",
"q@	c #F38F7F",
"r@	c #FEB4A4",
"s@	c #FEC9B9",
"t@	c #EFBCAD",
"u@	c #451A1E",
"v@	c #3F081B",
"w@	c #70473E",
"x@	c #FAD0C0",
"y@	c #FAB7A8",
"z@	c #E48E7F",
"A@	c #FCAE9E",
"B@	c #FEB1A1",
"C@	c #E68171",
"D@	c #FEAA9A",
"E@	c #FEC0B0",
"F@	c #FEC4B4",
"G@	c #725454",
"H@	c #38153E",
"I@	c #532E51",
"J@	c #AE898A",
"K@	c #F4AA9A",
"L@	c #C5776A",
"M@	c #D1786A",
"N@	c #FDAF9F",
"O@	c #FECCBC",
"P@	c #E69282",
"Q@	c #FEA191",
"R@	c #FEBDAD",
"S@	c #694E50",
"T@	c #5E223C",
"U@	c #251628",
"V@	c #844984",
"W@	c #864C85",
"X@	c #AE8685",
"Y@	c #D89688",
"Z@	c #8C4C42",
"`@	c #F8A191",
" #	c #EC9C8C",
".#	c #EDB2A2",
"+#	c #F79282",
"@#	c #FEA494",
"##	c #D58E81",
"$#	c #292639",
"%#	c #3C1A1E",
"&#	c #0A0A11",
"*#	c #26263D",
"=#	c #3C2947",
"-#	c #6A4071",
";#	c #57365C",
">#	c #B6685B",
",#	c #DE7969",
"'#	c #F7C9B9",
")#	c #9F5A4F",
"!#	c #70423D",
"~#	c #271E29",
"{#	c #0C0C14",
"]#	c #11111B",
"^#	c #27273E",
"/#	c #282841",
"(#	c #31233D",
"_#	c #211626",
":#	c #D8897A",
"<#	c #2D2421",
"[#	c #0A0A10",
"}#	c #25253B",
"|#	c #292941",
"1#	c #292942",
"2#	c #282840",
"3#	c #DD9D8F",
"4#	c #AF7C79",
"5#	c #473237",
"6#	c #282842",
"7#	c #202034",
"8#	c #13131F",
"9#	c #512F4F",
"0#	c #8B4D8B",
"a#	c #523157",
"b#	c #1B101C",
"c#	c #10101B",
"d#	c #1F1F32",
"e#	c #161623",
"f#	c #11111C",
"g#	c #130E18",
"h#	c #3F2847",
"i#	c #432A4A",
"j#	c #231E32",
"k#	c #191928",
"l#	c #0E0D16",
"m#	c #26263E",
"n#	c #1E1E31",
"o#	c #272740",
"p#	c #0B0B12",
"q#	c #151521",
"r#	c #1B1B2B",
"s#	c #24243A",
"t#	c #232339",
"u#	c #0D0D15",
"v#	c #191929",
"w#	c #131320",
"                        . + @ # $ % & *           ",
"                    = - ; ; ; > , ' ) ; !         ",
"                  - ~ { ; ; ; ; ; ; ; ; ; ]       ",
"                ^ ; ; { ; ; ; ; ; ; ; ; ; / (     ",
"            _ : < ; ; { [ } ; } ; } ; } | 1 2 3   ",
"          4 5 6 7 8 9 0 a b c d e f g h i j k l   ",
"            m n o p q r s t u v w x y z A B C !   ",
"            D E F G H I J K L M N O P Q R S T {   ",
"            U V W X Y Z `  ...+.@.#.$.%.&.*.=.{   ",
"              -.;.>.,.'.).!.~.{.].^./.(._.:.<.[.  ",
"                }.|.1.2.3.4.5.{.6.7.8.9.0.a.b.c.  ",
"                  d.e.f.g.h.i.j.{.k.l.m.n.o.p.[   ",
"                  q.r.s.t.{.u.v.k.{.{.w.x.y.z.( A.",
"                  B.C.D.E.t.F.G.H.{.l.I.J.K.L.M.N.",
"                  O.P.Q.R.S.T.t.M U.V.W.X.Y.Z.`. +",
"                  .+++@+#+$+%+&+*+=+-+;+>+,+'+)+!+",
"                  ~+{+]+^+/+(+_+:+<+[+}+|+1+2+V 3+",
"                  4+5+6+7+8+9+0+a+b+c+d+e+f+g+V h+",
"                  i+j+k+l+m+n+o+p+q+r+s+t+u+v+V h+",
"                w+x+y+z+A+B+C+D+E+F+G+H+I+J+K+@   ",
"                L+M+N+O+P+Q+R+S+T+U+V+W+X+Y+Z+`+  ",
"                 @.@+@@@#@$@%@&@*@=@-@;@>@,@'@)@  ",
"                !@~@{@]@{.^@/@(@_@:@$@<@!@[@}@    ",
"                |@1@]@2@$@3@4@5@(@_@6@7@8@9@0@    ",
"                a@]@2@b@3@c@d@e@f@g@h@i@j@k@      ",
"              l@]@{.$@m@n@o@p@q@r@s@t@u@v@        ",
"            w@x@{./@y@z@e@A@B@C@D@E@F@G@H@        ",
"          I@J@{./@K@L@M@N@O@H.P@Q@w.R@S@T@        ",
"        U@V@W@X@Y@  Z@`@ #{.{..#+#@###$#%#        ",
"      &#*#=#-#;#      >#,#u.{.'#)#!#~#{#          ",
"    ]#^#/#/#(#_#          :#+.+.<#                ",
"[#}#|#1#/#2#[#              3#4#5#                ",
"|.6#/#1#7#8#                9#0#a#b#              ",
"c#d#e#f#                  g#h#i#j#k#              ",
"                            l#m#n#o#p#            ",
"                              q#r#s#]#            ",
"                              t#/#/#]#            ",
"                              r#/#/#]#            ",
"                              u#/#/#u#            ",
"                                v#w#              "};
