/* XPM */
static char * misa_parp_xpm[] = {
"76 122 20 1",
" 	c None",
".	c #000000",
"+	c #730873",
"@	c #292942",
"#	c #945294",
"$	c #B55242",
"%	c #FF9484",
"&	c #FFB5A5",
"*	c #FFDECE",
"=	c #FA9080",
"-	c #FDB3A3",
";	c #FFFFFF",
">	c #CECEFF",
",	c #A50000",
"'	c #FDDBCB",
")	c #FEDDCD",
"!	c #EF0052",
"~	c #CE0008",
"{	c #DEDEDE",
"]	c #FF8400",
"                                         ......... ......                   ",
"                                      ...+++++++@@.@@++++...                ",
"                                   ...++++++++#+++@+++++++++..              ",
"                                 ..+++++++++++##+++++###++++++.             ",
"                               ..++++++++++++++#######+++++++++..           ",
"                             ..++++++++++++++++++++++++++++++++++.          ",
"                           ..+++++++++++++++++++++++++++++++++++++.         ",
"                          .++++++++++++++++++++++++++++++++++++++++.        ",
"                         .++++++++++++++++++++++++++++++++++++++++++.       ",
"                        .++++++++++++++++++++++++++++++++++++++++++++.      ",
"                       .+++++++++++++++++++++++++++++++++++++++++++++.      ",
"                      ...+++++++++++++++++++++++++++++++++++++++++++++.     ",
"                    ..##++++++++++++++++++++++++++++++++++++++++.+++++.     ",
"                   .###..++++++++++++++++++++++++++++++++++++++++.+++++.    ",
"                  .##+.+++++++++++++++++++++++++++++++++++++++++++.+#++.    ",
"                 .##+.+##++++++++++++.++++++++++++++++++++++++##++.+#++.    ",
"                .++..###++++++++++++.+++++..++++...+++.++++.++##++#.#+++.   ",
"                .+..+###.++#++++++++.#+++....++.....+#..+++.++.##+#.@+++.   ",
"                .. .###.++#++++++.+.+#++.$%%$..%%%$.##..###.##.####.@+++.   ",
"                . .+#+.+###+.+#++.+.+##+.%&&%$%&&&%.##.%.+..##.#++#.@+++.   ",
"                . .+++.###+.++#+.++..+#+.%&**%****%.#+.%...+#..+++@.@+++.   ",
"                 .+++.+###+.+##..#+.$.##+.&******&.+..++.+.+..@++@@.@++++.  ",
"                 .+++.##+#+.###..##.%%.++.&******%..+%%%.%..%.@@@@.@+++++.  ",
"                 .++..#+.#+.#+#..#+.%++..+.&*****.+%&&&&%&.%&.@@..@@+++++.  ",
"                 .++..++.+#.++.$.++.+%%%%%%+****%%&&&%$$$$%&....@@@@+++++.  ",
"                  .+..++.++.++.%+.@.%&&&&&&%*****&&%$%%%%%%$%&%.@@@@@++++.  ",
"                  .. .++.++.+@.+%.@.&%$..$%&*****&%$%&&&&&&%%$&$@@@@@++++.  ",
"                   . .++.++@.@.%&%..$=====$$*****&&%&&&&&&&&%%%%.@..@++++.  ",
"                   .  .+.++@.@.%&&%$==-====$******&%&&&&&&&&&%$&..%%.@+++.  ",
"                      .+@.+@.@.%&&%$=----==$*******............%.%&&%.@++.  ",
"                       .@.+@@.@.&&$.........*******;;;$.@+.;.$%&.&$%&.@++.  ",
"                        .@.@@.@.&%..;;;$.@+.*******;;;>.+$.;;%&&&$%&%.@++.  ",
"                         .@.@@..%&$.;;;>.++.*******&;;>$..>;>&&&&$%&..@++.  ",
"                          .@.@@.,&%$>;;>$..>********&&&&&&&&&&&&%%%%..+++.  ",
"                           .@..%$%&&***=-&&&&**********&&&&&&&&&$%&.@.+++.  ",
"                           .+@.%%,&&***')**&&%***********&&&&&&%$%.@@.+++.  ",
"                           .+@..%$%&*******&%$************&&&&&$...@@.+++.  ",
"                           .++..&%,&********&%************&&&&%$@@.@+.+++#. ",
"                           .+.+@.$$%*********&************&&&%$@@@.@++.++#. ",
"                           .+.++@.@,&*************%*******&&%$@@@@.@++.++#. ",
"                          .#+.+++.@,%&******%&**&&*******&&%$@.@@+@.#+.++#. ",
"                          .##.+++.@@,%&*****************&&%$@@.@@++.##.+##. ",
"                          .##.#++.+@@$%&***************&&%$@@@.@++#.##.+##. ",
"                          .+#.#++.+@@@.$%&************&%$$@@@@.@++#.###.##. ",
"                          .+#.#++.+@@@@@.$%&********&%.........@+##.##+.+##.",
"                          .+.+##+.+@.......$%&*****&%.,,,,,,,,.@#+##.#+.++#.",
"                          .+.+##.+..,,,,,,,...$%&&%$..,$$$$$$$.@+++#.+++.+#.",
"                          .+.+##.+.,$$$$$$$$$....$$++.,$!!~~..@+++++.+++.++.",
"                          .+..+#...,${{{{{{+>.$]%%]>+.,$!~~~......++.+++.++.",
"                          .+..+#.].,${{{{{{+>>]%]>;>+.,$!~~.]..]]..++.++.++.",
"                          .+..+#.].,${{{{{{.+;>&>;+@@.,$!~.].]]..~.++.++.++.",
"                          .+.].+.].,${{{{..@@+;>+@@@..,$!$.]...~!!~.+.++.+. ",
"                           ....+.].,,${{.@@..@>+@...@.,$$].].~!!!!~.+.++.+. ",
"                           ..~....]..,$.@@@@@@>@@@@@@.,$].].~!!~~~~.+.++.+. ",
"                           ..~~..].~~...@@@@@@+@@@@@@..].].~!!~%]%~.+.++.+. ",
"                           .~~~~~.]!!.!.@@@@@+.@@@@@....].~~!!!~]]%.+.++.+. ",
"                           .!!!~~~.!!.!~.@@@@$.@@@@..**..~~~~~~~%]].+.++.+. ",
"                          .!!!!!~~.~~.~~.@@@@$.@@@@.&...~~~~,~!!~%].+.++.+. ",
"                          .!!!!,~~.~.~~.@@@@@$.@@@.&.**.~~~,~~!!!~%.+.++.+. ",
"                         .!!!!~~,,.~.~~.....@.@@@@..&&.~~~,~~~!!!!~~.+++..  ",
"                         .!!!~~~~,.~.~.%&&&%$...@.&.&..~.,~~~~~!!!!~.+++..  ",
"                         .......~~,...&&******&%$.&..*&.~~~~~~~~!!!~.++.+.  ",
"                        .,,,,,,,.~~..&&&&&&&****&%$.&&.~~~....~~~!!!~.+.+.  ",
"                        .,,,,,..,.,...&$$$$$&&****&%$.~~..,,,,..~~!!~.+..   ",
"                       .,,,,,......%%$$%&&&%$.&&****&%$.....,,,,.~~!~.+..   ",
"                       .,,,,...%&*&$$%&*****&%$.&*****&%.,,,..,,,.~~~.+.    ",
"                       .,,,,.$&**&$&**********&%$&&****&%...,,.,,,.~~..     ",
"                       .,.,,.%&*&$&*************&.%&&***&%$..,,,,,.~~.      ",
"                       .,.,,.&&&$&*******&*&*&***&.%&&***&%$..,,,,,.~.      ",
"                        .,.,.&&$&*******&*&*&*&***&.%&&***&%...,,,,.~.      ",
"                        .,.,.%$&*******&*&&&&&*&***&.%&&***&$..,,,,..       ",
"                         ..,,$&*******&*&&&&%&&*&***&.%&&&&&%..,,,,..       ",
"                          ..$&*******&*&&&&%&%&&*&***&.%&&&&%..,,,,.        ",
"                           $&*******&*&&&&%&%.$%&*&***&.%&&%$..,,,.         ",
"                          $&*******&*&&&&%&%.%%&&&*&***&.$%$...,,,.         ",
"                         $&*******&*&&&&%&%.$%%%&&&*&*&*&.....,,,.          ",
"                        $&*******&*&&&&%&%.%%$%&%&&&*&*&*.,,,,,,.           ",
"                       $&*******&*&&&&%&%$%&&$%%&&&*&*&*&*......            ",
"                      $&*******&*&&&&%&%$%&&&$%%%&&&*&*&*&.@@@+.            ",
"                     $&*******&*&&&&%&%$%&&&&%$%&%&&&*&*&&&.@@+.            ",
"                    $&*******&*&&&&%%$%&&&&&&%$%%&&&&&*&*&&.@@+.            ",
"                   $&*******&*&&&&%$$%&&&&&&&&$%%%&&&*&*&&&.@@+.            ",
"                ..$&*******&*&&&&..%%&&&&&&&&&%$%&%&&&*&*&&.@@$.            ",
"               .##.*******&*&&&%.%%$%&&&&*****%$%%&&&&&*&&&.@+$.            ",
"              ..###.*****&*&&%$$%&%$%&&&*******$%%%&&&&&&&&.@+$.            ",
"             .##.###.***&*&&%$ $%&&%$%*********$%%&%&&&&&&.@@+$.            ",
"             .#######.*&*&&%$  $%&&%$%*********%$%%&%&%&%&.@@$.             ",
"             ..#######.&&&$     $%&&%$%*********$%%%&%&%&.@@@$.             ",
"            .@@.#####@#.&$      $%&&%$%&********$%%%%%%%.@@@@.              ",
"           .@@@@.###@#@#.        $%%&%$%********$%%%%%..@@@..               ",
"          .@@@@@@.#@#.#@#.        $$%%$%&*******%$....@@@..                 ",
"         .@@@@@@@@.#@#.#@.          $$$$%********........                   ",
"       ..@@@@@@@@@@.#@.@.              $%&*******.                          ",
"     ..@@@@@@@@@@@@@.#..                $%&******.                          ",
"   ..@@@@@@@@@@@@@@@..                  $%&****&&&.                         ",
"  .@@@@@@@@@@@@@@@@.                     $%&&&&&&&.                         ",
" .@@@@@@@@@@@@@@@@@.                     $%&&&&......                       ",
".@@@@@@@@@@@@@@@@@.                       .%...##@#@#.                      ",
".@@@@@@@@@@@@@@@@@.                       ..#####.....                      ",
".@@@@@@@@@@@@@....                       .#@#######@#.                      ",
".@@@@@@@@@@@@.@@.                       .#@..#####@#..                      ",
".@@@@@@@@@@@....                        .@.@####....@.                      ",
" .@@@@@.....                             .@#@...@@@@@@.                     ",
"  .....                                  .#..@@@@@@@@@@.                    ",
"                                          ..@@@@@@@@@@@.                    ",
"                                            .@@@@@@@@@@@.                   ",
"                                            .@@@....@@@@.                   ",
"                                            .@@.@@@@.@@@.                   ",
"                                             ......@@@@@.                   ",
"                                             .@@@@@@@@@@.                   ",
"                                             .@@@@@@@@@@.                   ",
"                                             .@@@@@@@@@@.                   ",
"                                             .@@@@@@@@@@.                   ",
"                                             .@@@@@@@@@@.                   ",
"                                              .@@@@@@@@@.                   ",
"                                              .@@@@@@@@@.                   ",
"                                              .@@@@@@@@@.                   ",
"                                               .@@@@@@@@.                   ",
"                                               .@@@@@@@.                    ",
"                                               .@@@@@@@.                    ",
"                                                .@@@@..                     ",
"                                                 ....                       "};
