/* XPM */
static char * ed_v_mini_xpm[] = {
"50 53 321 2",
"  	c None",
". 	c #000000",
"+ 	c #111100",
"@ 	c #585700",
"# 	c #8D8B00",
"$ 	c #ABA900",
"% 	c #AFAC00",
"& 	c #B1AE00",
"* 	c #ADAB00",
"= 	c #A09E00",
"- 	c #918F00",
"; 	c #767500",
"> 	c #535200",
", 	c #282800",
"' 	c #080800",
") 	c #010100",
"! 	c #BCBA00",
"~ 	c #FFFC00",
"{ 	c #E1DE00",
"] 	c #A4A200",
"^ 	c #4A4900",
"/ 	c #070700",
"( 	c #141400",
"_ 	c #181800",
": 	c #232300",
"< 	c #ECE900",
"[ 	c #DCD900",
"} 	c #626100",
"| 	c #060600",
"1 	c #020200",
"2 	c #5E5D00",
"3 	c #E8E500",
"4 	c #C2C000",
"5 	c #090900",
"6 	c #525000",
"7 	c #FBF800",
"8 	c #CCCA00",
"9 	c #323100",
"0 	c #151500",
"a 	c #FCF900",
"b 	c #FEFB00",
"c 	c #929000",
"d 	c #AEAC00",
"e 	c #F5F200",
"f 	c #6E6D00",
"g 	c #2C2B00",
"h 	c #D4D100",
"i 	c #4E4D00",
"j 	c #292900",
"k 	c #F0ED00",
"l 	c #FDFA00",
"m 	c #989600",
"n 	c #3F1813",
"o 	c #E6CA0C",
"p 	c #D8D600",
"q 	c #090800",
"r 	c #868400",
"s 	c #9F9D00",
"t 	c #381313",
"u 	c #EC4F4F",
"v 	c #FF664C",
"w 	c #FFCB19",
"x 	c #FFFB00",
"y 	c #1D1D00",
"z 	c #050400",
"A 	c #230C0B",
"B 	c #E74D4D",
"C 	c #FF5555",
"D 	c #FF5B52",
"E 	c #FFB325",
"F 	c #FFFB01",
"G 	c #EDEA00",
"H 	c #141300",
"I 	c #9C9A00",
"J 	c #666400",
"K 	c #060202",
"L 	c #BC3E3E",
"M 	c #FF5953",
"N 	c #FFB922",
"O 	c #727000",
"P 	c #363500",
"Q 	c #F8F500",
"R 	c #EEEB00",
"S 	c #2D2D00",
"T 	c #602020",
"U 	c #FFC31D",
"V 	c #D6D400",
"W 	c #040400",
"X 	c #CBC900",
"Y 	c #F7F400",
"Z 	c #F2EF00",
"` 	c #EFEC00",
" .	c #A2A000",
"..	c #D49121",
"+.	c #FF6050",
"@.	c #FFDF0F",
"#.	c #3E3D00",
"$.	c #908F00",
"%.	c #E7E400",
"&.	c #A7A500",
"*.	c #646300",
"=.	c #3A3900",
"-.	c #272600",
";.	c #0D0C00",
">.	c #595700",
",.	c #FFCE17",
"'.	c #FF604F",
").	c #FF813E",
"!.	c #7B7900",
"~.	c #545300",
"{.	c #FAF700",
"].	c #AAA800",
"^.	c #3F3E00",
"/.	c #030300",
"(.	c #BAB800",
"_.	c #FFE80A",
":.	c #FF8A3A",
"<.	c #FF5654",
"[.	c #FF5853",
"}.	c #FFD912",
"|.	c #B6B400",
"1.	c #302F00",
"2.	c #D0CE00",
"3.	c #373600",
"4.	c #222200",
"5.	c #FF7F40",
"6.	c #FF5754",
"7.	c #504F00",
"8.	c #9D9B00",
"9.	c #292800",
"0.	c #666500",
"a.	c #A5A300",
"b.	c #C4C100",
"c.	c #DDDA00",
"d.	c #6E6C00",
"e.	c #1F1F00",
"f.	c #E6E400",
"g.	c #FFF901",
"h.	c #FFD812",
"i.	c #FF9F2F",
"j.	c #FF833E",
"k.	c #FF9932",
"l.	c #FFF404",
"m.	c #F4F200",
"n.	c #070600",
"o.	c #5F5E00",
"p.	c #CECC00",
"q.	c #F8F600",
"r.	c #BBB800",
"s.	c #595800",
"t.	c #D5D200",
"u.	c #8B8900",
"v.	c #C5C300",
"w.	c #EBE800",
"x.	c #111000",
"y.	c #040300",
"z.	c #2E2E00",
"A.	c #0C0C00",
"B.	c #4F4E00",
"C.	c #131200",
"D.	c #343300",
"E.	c #1B1A00",
"F.	c #FFF802",
"G.	c #FFF205",
"H.	c #FFF603",
"I.	c #656300",
"J.	c #3B3A00",
"K.	c #222100",
"L.	c #D9D700",
"M.	c #FFFA01",
"N.	c #FFE40C",
"O.	c #FFBC21",
"P.	c #FF9C31",
"Q.	c #FF7E40",
"R.	c #FF7246",
"S.	c #FF6C49",
"T.	c #FF684B",
"U.	c #FF6F48",
"V.	c #FF7843",
"W.	c #72381D",
"X.	c #1D1C00",
"Y.	c #393800",
"Z.	c #CDCB00",
"`.	c #FFEE07",
" +	c #FF8E38",
".+	c #FF5A53",
"++	c #752727",
"@+	c #0B0B00",
"#+	c #7D7C00",
"$+	c #EAE700",
"%+	c #333200",
"&+	c #131300",
"*+	c #B5B200",
"=+	c #FF9B31",
"-+	c #682323",
";+	c #949200",
">+	c #7E7C00",
",+	c #F9F600",
"'+	c #FFAA2A",
")+	c #561D1D",
"!+	c #F6F300",
"~+	c #424100",
"{+	c #D3D000",
"]+	c #FFA92A",
"^+	c #FF5D51",
"/+	c #F95353",
"(+	c #311010",
"_+	c #C1BE00",
":+	c #515000",
"<+	c #0C0B00",
"[+	c #828000",
"}+	c #FFEA09",
"|+	c #FFAF27",
"1+	c #FF7D40",
"2+	c #FF614F",
"3+	c #E64D4D",
"4+	c #0D0404",
"5+	c #060500",
"6+	c #1C1B00",
"7+	c #7C7B00",
"8+	c #C6C300",
"9+	c #313000",
"0+	c #010000",
"a+	c #202000",
"b+	c #9A9800",
"c+	c #F4F100",
"d+	c #FFF305",
"e+	c #FFDB11",
"f+	c #FFA82B",
"g+	c #FF9E30",
"h+	c #A15824",
"i+	c #B4B100",
"j+	c #DEDB00",
"k+	c #050500",
"l+	c #B3B100",
"m+	c #F1EE00",
"n+	c #807E00",
"o+	c #0E0E00",
"p+	c #242400",
"q+	c #8E8C00",
"r+	c #E7E500",
"s+	c #4B4A00",
"t+	c #5B5900",
"u+	c #ACAA00",
"v+	c #E5E200",
"w+	c #5A5800",
"x+	c #080700",
"y+	c #5D5C00",
"z+	c #B9B700",
"A+	c #E9E600",
"B+	c #C7C400",
"C+	c #565500",
"D+	c #1E1D00",
"E+	c #A19E00",
"F+	c #D6D300",
"G+	c #858300",
"H+	c #403F00",
"I+	c #585600",
"J+	c #747200",
"K+	c #1C1C00",
"L+	c #434200",
"M+	c #686700",
"N+	c #8C8B00",
"O+	c #BAB700",
"P+	c #CCC900",
"Q+	c #D2D000",
"R+	c #D1CF00",
"S+	c #C3C100",
"T+	c #B2AF00",
"U+	c #9E9C00",
"V+	c #7D7B00",
"W+	c #575600",
"X+	c #343400",
"Y+	c #181700",
"Z+	c #0D0D00",
"`+	c #3D3C00",
" @	c #5E5C00",
".@	c #1B1B00",
"+@	c #C4C200",
"@@	c #EDEB00",
"#@	c #A8A600",
"$@	c #E3E000",
"%@	c #201F00",
"&@	c #817F00",
"*@	c #706E00",
"=@	c #6B6A00",
"-@	c #676600",
";@	c #908E00",
">@	c #161600",
",@	c #C1BF00",
"'@	c #030200",
")@	c #BEBB00",
"!@	c #C8C500",
"~@	c #353400",
"{@	c #1A1A00",
"]@	c #7B7A00",
"^@	c #2D2C00",
"/@	c #797700",
"(@	c #171700",
"_@	c #C9C600",
":@	c #8C8A00",
"<@	c #5A5900",
"[@	c #605E00",
"}@	c #282700",
"|@	c #CAC700",
"1@	c #7F7E00",
"2@	c #848200",
"3@	c #2E2D00",
"4@	c #8F8D00",
"5@	c #A3A100",
"6@	c #C0BD00",
"7@	c #E9E700",
"8@	c #7F7D00",
"9@	c #6D6C00",
"0@	c #767400",
"a@	c #646200",
"b@	c #939100",
"c@	c #BDBA00",
"d@	c #D2CF00",
"e@	c #E2E000",
"f@	c #6D6B00",
"                                                                                                    ",
"                                                                                                    ",
"                                                                                                    ",
"                                                                                                    ",
"                                                                                                    ",
"                                                                                                    ",
"                                            . . . . . . . .                                         ",
"                                    . . . . . . . . . . . . . . . . .                               ",
"                                  . . . + @ # $ % & * = - ; > , ' ) . . .                           ",
"                              . . . . ) ! ~ ~ ~ ~ ~ ~ ~ ~ ~ ~ ~ { ] ^ / . . .                       ",
"                          . . . ( _ . . : < ~ ~ ~ ~ ~ ~ ~ ~ ~ ~ ~ ~ ~ [ } | . .                     ",
"                        . . 1 2 3 4 5 . . 6 7 ~ ~ ~ ~ ~ ~ ~ ~ ~ ~ ~ ~ ~ ~ 8 9 . . .                 ",
"                      . . 0 ] a ~ b c . . ) d ~ ~ ~ ~ ~ ~ ~ ~ ~ ~ ~ ~ ~ ~ ~ e f ) . .               ",
"                    . . g h ~ ~ ~ ~ 7 i . . j k ~ ~ ~ ~ ~ ~ ~ ~ ~ ~ ~ ~ ~ ~ ~ l m / . .             ",
"                  . . n o ~ ~ ~ ~ ~ ~ p q . . r ~ ~ ~ ~ ~ ~ ~ ~ ~ ~ ~ ~ ~ ~ ~ ~ ~ s ' . .           ",
"                . . t u v w x ~ ~ ~ ~ ~ ; . . y < ~ ~ ~ ~ ~ ~ ~ ~ ~ ~ ~ ~ ~ ~ ~ ~ b m z .           ",
"              . . A B C C D E F ~ ~ ~ ~ G H . . I ~ ~ ~ ~ ~ ~ ~ ~ ~ ~ ~ ~ ~ ~ ~ ~ ~ a J . .         ",
"              . K L C C C C M N x ~ ~ ~ ~ O . . P Q ~ ~ ~ ~ ~ ~ ~ ~ ~ ~ ~ ~ ~ ~ ~ ~ ~ R S . .       ",
"            . . T C C C C C C D U ~ ~ ~ ~ V 5 . W X ~ ~ ~ ~ ~ ~ ~ ~ ~ ~ ~ ~ ~ ~ a Y Z `  .1 .       ",
"            . 5 ..M C C C C C C +.@.~ ~ ~ ~ #.. . $.~ ~ ~ ~ ~ ~ ~ ~ ~ ~ a %.&.*.=.-.( 5 ;.1 . .     ",
"          . . >.~ ,.'.C C C C C C ).x ~ ~ ~ !.. . ~.~ ~ ~ ~ ~ ~ ~ ~ {.].^.W . . . . . . . . . .     ",
"          . /.(.~ ~ _.:.<.C C C C [.}.~ ~ ~ |.) . 1.~ ~ ~ ~ ~ ~ ~ 2.3.. . . . . . . . . . . . .     ",
"          . 4.Y ~ ~ ~ F w 5.6.C C C U ~ ~ ~ Q 7.0 8.~ ~ ~ ~ ~ ~ Y 9.. . . 1 j 0.a.b.c.G 3 { d.. .   ",
"        . . e.f.~ ~ ~ ~ ~ g.h.i.j.k.l.~ ~ ~ ~ 7 m.b ~ ~ ~ ~ ~ ~ Q 9.. n.o.p.q.~ ~ ~ ~ ~ ~ ~ r.. .   ",
"        . . . s.l ~ ~ ~ ~ ~ ~ ~ ~ ~ ~ ~ ~ ~ ~ ~ ~ ~ ~ ~ ~ ~ ~ ~ ~ t.u.v.l ~ ~ ~ ~ ~ ~ ~ ~ ~ w.x..   ",
"        . . . y.I ~ ~ ~ ~ ~ ~ ~ ~ ~ ~ ~ ~ ~ ~ ~ ~ ~ ~ ~ ~ ~ ~ ~ ~ ~ ~ ~ ~ ~ ~ ~ ~ ~ ~ ~ ~ ~ q.z..   ",
"        . ) 1 . A.4 ~ ~ ~ ~ ~ ~ ~ ~ ~ ~ ~ ~ ~ ~ ~ ~ ~ ~ ~ ~ ~ ~ ~ ~ ~ ~ ~ ~ ~ ~ ~ ~ ~ ~ ~ ~ ~ B..   ",
"        . C.D.. . E.V ~ ~ ~ ~ ~ ~ ~ ~ ~ ~ ~ ~ ~ ~ ~ ~ ~ ~ ~ ~ ~ ~ ~ ~ ~ ~ ~ ~ ~ ~ x F.l.G.H.F I.. . ",
"        . _ J./.. . K.L.~ ~ ~ ~ ~ ~ ~ ~ ~ ~ ~ ~ ~ ~ ~ ~ ~ ~ ~ ~ ~ ~ ~ ~ ~ M.N.O.P.Q.R.S.T.U.V.W.. . ",
"        . + X.~.Y.. . K.Z.~ ~ ~ ~ ~ ~ ~ ~ ~ ~ ~ ~ ~ ~ ~ ~ ~ ~ ~ ~ ~ ~ ~ `. +.+C C C C C C C C ++. . ",
"        . / @+#+$+%+. . &+*+b ~ ~ ~ ~ ~ ~ ~ ~ ~ ~ ~ ~ ~ ~ ~ ~ ~ ~ ~ ~ ~ =+C C C C C C C C C C -+. . ",
"        . ) ) ;+~ G #.. . | >+,+~ ~ ~ ~ ~ ~ ~ ~ ~ ~ ~ ~ ~ ~ ~ ~ ~ ~ ~ ~ '+C C C C C C C C C C )+. . ",
"        . . . $ ~ ~ !+~+. . . #.{+~ ~ ~ ~ ~ ~ ~ ~ ~ ~ ~ ~ ~ ~ ~ ~ ~ ~ ~ F.]+^+C C C C C C C /+(+.   ",
"        . . ) _+~ ~ ~ :+E.<+. . A.[+k ~ ~ ~ ~ ~ ~ ~ ~ ~ ~ ~ ~ ~ ~ ~ ~ ~ ~ ~ }+|+1+2+C C C C 3+4+.   ",
"          . 5+p.~ ~ b 6+7+8+9+. . 0+a+b+c+~ ~ ~ ~ ~ ~ ~ ~ ~ ~ ~ ~ ~ ~ ~ ~ ~ ~ ~ M.d+e+N f+g+h+. .   ",
"          . 1 i+~ ~ j+k+l+~ m+n+o+. . ) p+q+r+~ ~ ~ ~ ~ ~ ~ ~ ~ ~ ~ ~ ~ ~ ~ ~ ~ ~ ~ ~ ~ ~ l s+. .   ",
"          . . t+~ ~ u+k+v+~ ~ b t.w+x+. . . 0 y+z+k ~ ~ ~ ~ ~ ~ ~ ~ ~ ~ ~ ~ ~ ~ ~ ~ ~ ~ ~ p.q .     ",
"            . + A+~ ; , Q ~ ~ ~ ~ l B+C+@+. . . 1 D+s.E+F+m+~ ~ ~ ~ ~ ~ ~ ~ ~ ~ ~ ~ ~ ~ l o.. .     ",
"            . . G+~ H+I+~ ~ ~ ~ ~ ~ ~ ~ J+A.K+1 . . . . W e.L+M+N+&.O+P+Q+Q+R+S+T+U+V+W+X+/ .       ",
"              . Y+< Z+q+~ ~ ~ ~ ~ ~ ~ ~ `+> m+&  @.@W . . . . . . . . . . . . . . . . . . . .       ",
"              . . y+. +@~ ~ ~ ~ ~ ~ ~ @@W I ~ ~ ~ Y +@u.> y q 1 . . . . . . . . . . ) ) . .         ",
"                . 1 ' Z ~ ~ ~ ~ ~ ~ ~ #@/.$@~ ~ ~ ~ ~ ~ ~ ~ $+%@~+;+&@*@=@=@-@W i U+;@5 . .         ",
"                . . >@` ~ ~ ~ ~ ~ ~ ~ 2 X+a ~ ~ ~ ~ ~ ~ ~ ~ ,@'@)@~ ~ ~ ~ ~ v.. !@Z ~@. .           ",
"                  . . s+m+~ ~ ~ ~ ~ Q {@]@~ ~ ~ ~ ~ ~ ~ ~ ~ y+^@Q ~ ~ ~ ~ ~ /@(@!+i . .             ",
"                    . . J.$@~ ~ ~ ~ _@. v.~ ~ ~ ~ ~ ~ ~ ~ < 5 :@~ ~ ~ ~ ~ {.%+<@[@0+.               ",
"                      . . }@|@~ ~ ~ 1@( 7 ~ ~ ~ ~ ~ ~ ~ ~ ;@@+r+~ ~ ~ ~ ~ c.W _ . .                 ",
"                        . . o+2@m+7 =.<@~ ~ ~ ~ ~ ~ ~ ~ {.3@<@b ~ ~ ~ ~ b # . . .                   ",
"                          . . ) j 4@x+5@~ ~ ~ ~ ~ ~ ~ ~ ,@) 6@~ ~ ~ ~ 7@8@A.. .                     ",
"                              . . . ) 9@{+Y ~ ~ ~ ~ ~ b y+9.l ~ Y {+0@.@. . .                       ",
"                                . . . . W g a@b@c@d@e@R+o+2 b+f@^@k+. . .                           ",
"                                      . . . . . . . . . . . . . . . .                               ",
"                                            . . . . . . . . . .                                     ",
"                                                                                                    "};
